<svg width="14" height="13" viewBox="0 0 14 13" fill="none" xmlns="http://www.w3.org/2000/svg">
<path d="M13.2713 5.70034C13.04 4.02036 12.1491 2.50082 10.7946 1.47601C9.44013 0.451199 7.73295 0.00505531 6.04865 0.235728C4.36435 0.4664 2.84091 1.35499 1.81346 2.70603C0.786012 4.05706 0.338721 5.75986 0.569987 7.43984C0.759782 8.83017 1.4 10.1205 2.39311 11.1143C3.38623 12.1081 4.6778 12.7509 6.07108 12.9447C6.35668 12.9817 6.64439 13.0002 6.93239 13.0001C8.09428 13.0022 9.23445 12.686 10.2285 12.086C10.2795 12.0587 10.3243 12.0213 10.3604 11.9762C10.3964 11.931 10.4229 11.879 10.4382 11.8234C10.4535 11.7677 10.4573 11.7095 10.4493 11.6524C10.4414 11.5952 10.4219 11.5402 10.3921 11.4908C10.3622 11.4414 10.3226 11.3985 10.2756 11.3648C10.2286 11.3311 10.1753 11.3073 10.1188 11.2948C10.0623 11.2822 10.0039 11.2813 9.94703 11.292C9.89017 11.3027 9.83607 11.3248 9.78803 11.3569C8.66182 12.0322 7.33215 12.2875 6.03508 12.0776C4.73801 11.8677 3.55748 11.2062 2.70306 10.2104C1.84865 9.21466 1.37565 7.94912 1.36804 6.63849C1.36042 5.32785 1.81869 4.05693 2.66147 3.05136C3.50425 2.04578 4.67702 1.37063 5.97157 1.14575C7.26611 0.920882 8.59866 1.16084 9.73264 1.82304C10.8666 2.48523 11.7287 3.52681 12.1657 4.76285C12.6027 5.99889 12.5865 7.34941 12.1199 8.57465C12.0437 8.77477 11.8996 8.94194 11.7127 9.04712C11.5258 9.15231 11.3078 9.18885 11.0967 9.15041C10.8856 9.11197 10.6946 9.00098 10.557 8.83671C10.4194 8.67244 10.3438 8.46527 10.3434 8.25121V3.62503C10.3434 3.51201 10.2984 3.40362 10.2183 3.32371C10.1382 3.24379 10.0295 3.19889 9.9162 3.19889C9.80289 3.19889 9.69422 3.24379 9.6141 3.32371C9.53398 3.40362 9.48897 3.51201 9.48897 3.62503V4.36055C9.02662 3.83577 8.4138 3.46534 7.73344 3.29939C7.05308 3.13344 6.33803 3.17998 5.68506 3.43271C5.03209 3.68545 4.47273 4.13218 4.08268 4.71244C3.69263 5.2927 3.49073 5.97847 3.50429 6.67695C3.51786 7.37543 3.74624 8.0529 4.15852 8.61765C4.57081 9.18241 5.14709 9.6072 5.80938 9.83452C6.47168 10.0618 7.188 10.0807 7.86141 9.88862C8.53481 9.69652 9.13279 9.30269 9.57441 8.76045C9.6804 9.11356 9.89473 9.42463 10.1872 9.64987C10.4798 9.87512 10.8357 10.0032 11.205 10.0161C11.5744 10.029 11.9384 9.92603 12.246 9.72173C12.5536 9.51743 12.7892 9.22207 12.9197 8.87721C13.3011 7.86417 13.422 6.77196 13.2713 5.70034ZM6.92555 9.16485C6.41855 9.16485 5.92294 9.0149 5.50139 8.73395C5.07984 8.453 4.75128 8.05368 4.55726 7.58647C4.36324 7.11927 4.31248 6.60518 4.41139 6.1092C4.5103 5.61322 4.75444 5.15764 5.11294 4.80005C5.47144 4.44247 5.9282 4.19896 6.42545 4.1003C6.92271 4.00165 7.43812 4.05228 7.90653 4.2458C8.37493 4.43932 8.77528 4.76704 9.05695 5.18751C9.33862 5.60798 9.48897 6.10232 9.48897 6.60801C9.48829 7.28592 9.218 7.93587 8.73741 8.41523C8.25682 8.89458 7.6052 9.16418 6.92555 9.16485Z" fill="#050819"/>
</svg>
