<svg width="13" height="11" viewBox="0 0 13 11" fill="none" xmlns="http://www.w3.org/2000/svg">
<path d="M3.25004 10.5593C2.56212 10.5593 1.91754 10.2938 1.43004 9.80634C0.942541 9.31884 0.677124 8.67425 0.677124 7.98634C0.677124 7.29842 0.942541 6.65383 1.43004 6.16633L6.08296 1.51342C6.77087 0.820085 7.69171 0.440918 8.66671 0.440918C9.64171 0.440918 10.5625 0.820085 11.2505 1.51342C11.9438 2.20133 12.323 3.12217 12.323 4.09717C12.323 5.07217 11.9438 5.993 11.2505 6.68092L8.18462 9.74675C8.02754 9.90384 7.76754 9.90384 7.61046 9.74675C7.45337 9.58967 7.45337 9.32967 7.61046 9.17259L10.6763 6.10675C11.2125 5.5705 11.5105 4.8555 11.5105 4.09717C11.5105 3.33883 11.2125 2.62383 10.6763 2.08758C10.14 1.55133 9.42504 1.25342 8.66671 1.25342C7.90837 1.25342 7.19337 1.55133 6.65712 2.08758L2.00421 6.7405C1.67379 7.07092 1.48962 7.51509 1.48962 7.98634C1.48962 8.45759 1.67379 8.89633 2.00421 9.23217C2.67046 9.89842 3.82962 9.89842 4.49587 9.23217L9.14879 4.57925C9.21207 4.51704 9.26234 4.44285 9.29665 4.36102C9.33095 4.27918 9.34863 4.19132 9.34863 4.10258C9.34863 4.01385 9.33095 3.92599 9.29665 3.84415C9.26234 3.76232 9.21207 3.68813 9.14879 3.62592C9.0859 3.56286 9.01118 3.51284 8.92892 3.4787C8.84666 3.44457 8.75848 3.427 8.66942 3.427C8.58036 3.427 8.49217 3.44457 8.40991 3.4787C8.32765 3.51284 8.25294 3.56286 8.19004 3.62592L3.53712 8.27883C3.38004 8.43592 3.12004 8.43592 2.96296 8.27883C2.80587 8.12175 2.80587 7.86175 2.96296 7.70467L7.61587 3.04633C7.89581 2.76789 8.27458 2.61159 8.66942 2.61159C9.06425 2.61159 9.44303 2.76789 9.72296 3.04633C9.86171 3.18391 9.97184 3.3476 10.047 3.52796C10.1221 3.70832 10.1608 3.90178 10.1608 4.09717C10.1608 4.29256 10.1221 4.48602 10.047 4.66638C9.97184 4.84674 9.86171 5.01043 9.72296 5.148L5.07004 9.80092C4.58254 10.2884 3.93796 10.5538 3.25004 10.5538V10.5593Z" fill="#050819"/>
</svg>
