<svg width="13" height="13" viewBox="0 0 13 13" fill="none" xmlns="http://www.w3.org/2000/svg">
<path d="M6.5 0C2.91015 0 0 2.91015 0 6.5C0 10.0899 2.91015 13 6.5 13C10.0899 13 13 10.0899 13 6.5C13 2.91015 10.0899 0 6.5 0ZM6.5 12.1875C3.35888 12.1875 0.8125 9.64112 0.8125 6.5C0.8125 3.35888 3.35888 0.8125 6.5 0.8125C9.64112 0.8125 12.1875 3.35888 12.1875 6.5C12.1875 9.64112 9.64112 12.1875 6.5 12.1875Z" fill="black"/>
<path d="M4.46875 5.28125C4.91748 5.28125 5.28125 4.91748 5.28125 4.46875C5.28125 4.02002 4.91748 3.65625 4.46875 3.65625C4.02002 3.65625 3.65625 4.02002 3.65625 4.46875C3.65625 4.91748 4.02002 5.28125 4.46875 5.28125Z" fill="black"/>
<path d="M8.53125 5.28125C8.97998 5.28125 9.34375 4.91748 9.34375 4.46875C9.34375 4.02002 8.97998 3.65625 8.53125 3.65625C8.08252 3.65625 7.71875 4.02002 7.71875 4.46875C7.71875 4.91748 8.08252 5.28125 8.53125 5.28125Z" fill="black"/>
<path d="M9.34375 6.5C9.34375 8.07056 8.07056 9.34375 6.5 9.34375C4.92944 9.34375 3.65625 8.07056 3.65625 6.5H2.84375C2.84375 8.51929 4.48071 10.1562 6.5 10.1562C8.51929 10.1562 10.1562 8.51929 10.1562 6.5H9.34375Z" fill="black"/>
</svg>
